<?xml version="1.0" encoding="UTF-8" standalone="no"?>
<!-- Created with Inkscape (http://www.inkscape.org/) -->

<svg
   xmlns:dc="http://purl.org/dc/elements/1.1/"
   xmlns:cc="http://creativecommons.org/ns#"
   xmlns:rdf="http://www.w3.org/1999/02/22-rdf-syntax-ns#"
   xmlns:svg="http://www.w3.org/2000/svg"
   xmlns="http://www.w3.org/2000/svg"
   xmlns:sodipodi="http://sodipodi.sourceforge.net/DTD/sodipodi-0.dtd"
   xmlns:inkscape="http://www.inkscape.org/namespaces/inkscape"
   width="173.34213mm"
   height="81.791168mm"
   viewBox="0 0 173.34213 81.791168"
   version="1.1"
   id="svg5107"
   inkscape:version="0.91 r13725"
   sodipodi:docname="logo.svg">
  <defs
     id="defs5101" />
  <sodipodi:namedview
     id="base"
     pagecolor="#ffffff"
     bordercolor="#666666"
     borderopacity="1.0"
     inkscape:pageopacity="0.0"
     inkscape:pageshadow="2"
     inkscape:zoom="0.7"
     inkscape:cx="-100.2988"
     inkscape:cy="75.937879"
     inkscape:document-units="mm"
     inkscape:current-layer="layer1"
     showgrid="false"
     inkscape:window-width="1280"
     inkscape:window-height="687"
     inkscape:window-x="0"
     inkscape:window-y="1"
     inkscape:window-maximized="1"
     inkscape:snap-object-midpoints="true"
     fit-margin-top="0"
     fit-margin-left="0"
     fit-margin-right="0"
     fit-margin-bottom="0" />
  <metadata
     id="metadata5104">
    <rdf:RDF>
      <cc:Work
         rdf:about="">
        <dc:format>image/svg+xml</dc:format>
        <dc:type
           rdf:resource="http://purl.org/dc/dcmitype/StillImage" />
        <dc:title></dc:title>
      </cc:Work>
    </rdf:RDF>
  </metadata>
  <g
     inkscape:label="Capa 1"
     inkscape:groupmode="layer"
     id="layer1"
     transform="translate(-482.29078,-44.183174)">
    <path
       inkscape:connector-curvature="0"
       style="opacity:1;fill:#ffffff;fill-opacity:1;fill-rule:nonzero;stroke:none;stroke-width:0.54581273"
       d="m 611.62385,44.19756 0,0.0015 c -6.74445,1.411752 -11.92096,6.869003 -18.86316,7.90256 -9.85216,2.475463 -20.15139,1.269959 -30.20433,1.464096 -7.18211,-0.391765 -15.09658,0.261659 -21.95105,-2.695373 -3.24589,-0.255884 -6.30933,1.271648 -9.62635,0.840252 -12.94263,0.376283 -26.78478,-0.877499 -38.73521,5.062413 -6.72224,3.469797 -11.10479,11.106052 -9.68605,18.703452 0.56855,9.182216 10.12667,15.14665 18.77809,14.399244 2.7827,-0.09791 5.54342,-0.640548 8.17567,-1.541715 0.60061,3.821045 4.98624,5.355105 8.37269,4.298275 -2.56072,8.078476 -6.36007,15.907096 -7.54288,24.341966 -0.18166,6.45783 7.38752,11.0428 13.07989,8.07865 3.84311,-1.6475 6.80173,-4.83525 9.04877,-8.27567 2.63447,0.77614 5.31082,-1.03509 7.35333,-1.80289 3.43779,2.36534 8.29374,1.8739 11.62027,0.23885 2.60701,2.17411 6.61038,1.85212 9.14577,-0.27177 2.67335,2.63771 7.11849,2.75078 10.14721,0.73429 2.77721,1.94668 6.51589,1.10758 9.17263,-0.009 3.44416,2.51558 8.29376,1.08115 10.97852,-1.48051 3.67831,3.28192 9.35631,3.33795 13.6112,1.18948 3.48403,2.1351 8.52165,0.59434 10.50839,-2.43272 3.03514,5.20288 11.36078,4.11344 13.87686,-1.02085 0.58104,2.86192 3.37317,5.2756 6.39517,4.12667 1.19091,-0.0231 2.09908,-2.12271 3.0103,-0.70594 2.11733,1.47061 5.30327,1.20283 7.1011,-0.56566 3.32202,3.4082 9.41608,0.65054 10.03528,-3.79381 0.87093,-4.26771 -1.26392,-8.3224 -1.65962,-12.491856 -0.44248,-1.23139 -1.5993,-2.17383 -2.89984,-2.27003 -0.1857,-0.0144 -0.37566,-0.0115 -0.56564,0.0115 -2.57842,0.25068 -3.9979,3.07052 -3.52966,5.417626 -0.38657,-0.084 -0.28531,-2.232106 -0.75518,-3.031176 -0.80251,-2.82082 -4.67388,-2.98916 -6.331,-0.91339 -0.67891,0.0453 -1.32887,0.17358 -1.9581,0.35521 0.53615,-0.89155 1.02792,-1.80863 1.44021,-2.77002 0.70172,-2.59003 -0.62464,-5.532865 -2.9864,-6.739909 -0.0346,-2.024861 0.47335,-3.278259 2.5924,-3.719211 5.09983,-2.41507 9.24132,-7.591231 8.3279,-13.502256 0.8673,-4.286412 -3.17624,-8.974987 -7.57571,-7.144204 -2.03017,1.236797 -4.46572,3.254761 -4.10873,-0.707424 -1.44023,-7.44134 -13.40692,-8.910986 -16.64238,-1.980492 -1.73935,2.958384 -2.79362,6.244909 -4.23261,9.347261 -2.6648,0.216894 -6.02378,0.826035 -8.28463,0.508926 0.78923,-1.624751 -0.26544,-4.027672 0.0702,-5.154942 5.84684,-1.901688 12.04029,-5.044794 15.15292,-10.575553 2.39979,-5.898182 -4.26614,-11.764935 -9.85619,-11.426244 z m -1.78647,6.102654 0.002,0 c 3.03211,0 4.93961,1.0749 5.72208,3.226687 -0.0979,0.195523 -0.14626,0.342458 -0.14626,0.440283 0.0979,0 0.14626,0.09848 0.14626,0.294009 0,0.195523 -0.0985,0.489331 -0.29401,0.880547 -0.19553,0.29343 -0.63615,0.684034 -1.32083,1.173075 -2.15182,1.956183 -4.74362,3.521552 -7.7757,4.695267 -3.03211,1.173716 -6.30817,2.151705 -9.82932,2.934174 -1.61582,0.323146 -3.27886,0.599756 -4.98182,0.835774 0.67284,0.733428 0.53511,1.968146 -0.42386,3.71174 -0.29343,0.684674 -0.58711,1.320497 -0.88054,1.907355 -0.19553,0.489041 -0.48933,1.076427 -0.88056,1.761101 -0.29342,0.586858 -0.68402,1.31959 -1.17306,2.199877 -0.48904,0.880287 -1.07645,1.956645 -1.7611,3.22818 1.70084,0.108592 3.49184,0.1987 5.32657,0.280432 0.50426,-0.645254 0.91713,-1.36687 1.21039,-2.187951 0.48904,-1.369325 0.83119,-2.689438 1.02681,-3.960964 0.29343,-1.369328 0.53719,-2.542599 0.73279,-3.520705 0.19552,-0.97808 0.53778,-1.46709 1.02681,-1.46709 1.17372,0 2.25011,0.342137 3.22819,1.026811 0.9781,0.586858 1.46708,1.369533 1.46708,2.347636 0,1.0759 -0.53742,2.34608 -1.61334,3.813219 -0.39122,0.489067 -0.88023,1.124878 -1.46709,1.907374 -0.58686,0.684648 -1.27264,1.320488 -2.05511,1.907346 -0.10859,0.09329 -0.22354,0.177039 -0.3373,0.262526 1.76959,0.06152 3.59598,0.112058 5.4803,0.150758 2.84797,-0.0696 5.63212,-0.205054 8.34134,-0.4134 3.13903,-0.236822 6.07737,-0.617933 8.82192,-1.141744 0.34749,-0.84976 0.77416,-1.884299 1.09546,-2.672976 1.07593,-2.738656 1.95548,-4.938356 2.64015,-6.601142 0.78247,-1.760574 1.17457,-2.690117 1.17457,-2.787913 0.68467,-1.173715 1.95635,-1.56432 3.81472,-1.173066 1.07592,0.195523 1.85859,0.537772 2.34763,1.026811 0.58686,0.489065 0.83062,1.074929 0.7328,1.759603 -0.0979,0.586858 -0.39148,1.419494 -0.88056,2.49539 -0.68279,1.44147 -1.63494,3.382756 -2.72969,5.589255 2.52813,-1.139059 4.44108,-2.559922 5.72356,-4.269925 0.64994,2.014779 0.77011,3.786865 0.38356,5.326587 3.94486,-1.265846 6.78391,-3.039054 8.49955,-5.326587 0.9781,3.032065 0.78282,5.526991 -0.58654,7.483174 -1.27151,1.858392 -3.37433,3.325364 -6.30862,4.40126 -2.93429,0.978106 -6.4556,1.613917 -10.5636,1.907346 -0.61496,0.03004 -1.24658,0.04996 -1.87304,0.07307 -0.20447,0.410916 -0.40889,0.838669 -0.61339,1.247708 -1.46715,2.83647 -2.69036,5.281432 -3.66846,7.335438 -0.97811,2.054 -1.37021,2.93356 -1.17456,2.64013 1.36932,-1.56496 2.83777,-3.27568 4.40274,-5.134049 1.66275,-1.956183 3.325,-3.424627 4.98779,-4.402733 1.56493,-0.880287 2.93353,-1.025644 4.10724,-0.438786 1.27153,0.489039 1.51675,2.004443 0.73429,4.547513 -0.29343,0.880287 -0.63559,1.858275 -1.02681,2.934175 -0.39125,1.07592 -0.78331,2.20072 -1.17456,3.37443 l -1.17307,3.22818 c -0.29343,0.978136 -0.53868,1.809266 -0.7343,2.493906 1.0759,-1.36932 2.1523,-2.836286 3.22819,-4.401246 1.17371,-1.56494 2.15167,-2.68976 2.93417,-3.37447 0.48904,0 0.8312,0.19524 1.02681,0.58654 0.19552,0.39128 3.3e-4,0.97866 -0.58653,1.76113 -1.46715,1.85839 -2.73879,3.47219 -3.81473,4.841516 -1.07589,1.36935 -2.10232,2.73789 -3.08042,4.10725 -0.48905,1.07586 -0.92961,2.10379 -1.32082,3.08189 -0.29343,0.97808 -0.53716,1.66241 -0.73281,2.05363 -0.48904,0.7825 -1.02798,1.31991 -1.61483,1.61334 -0.58686,0.29343 -1.17275,0.39186 -1.75961,0.29401 -0.48904,-0.19553 -0.92958,-0.5877 -1.32082,-1.17456 -0.29343,-0.58685 -0.34199,-1.31959 -0.14625,-2.19988 0.0979,-0.39124 0.43995,-1.56453 1.02681,-3.52068 0.58685,-1.95621 1.17275,-4.01053 1.7596,-6.162376 0.68468,-2.15182 1.27207,-4.05931 1.76111,-5.72206 0.48906,-1.66279 0.73428,-2.44543 0.73428,-2.34764 0.29343,-0.782465 0.34202,-1.173078 0.14625,-1.173078 -0.0979,0 -0.39148,0.195234 -0.88055,0.586539 l -1.7611,1.759619 c -0.68467,0.7825 -1.41741,1.6151 -2.19988,2.49539 -0.68468,0.88029 -1.36894,1.71142 -2.05362,2.49389 -0.58686,0.68467 -0.97895,1.17365 -1.17456,1.46708 -1.36935,1.760576 -2.49416,3.521226 -3.37444,5.281806 -0.78247,1.66278 -1.56514,3.5203 -2.34764,5.57431 -0.29343,1.07589 -0.73247,1.85856 -1.31933,2.34763 -0.68465,0.39122 -1.3205,0.48962 -1.90736,0.29401 -0.58686,-0.0979 -1.0274,-0.48991 -1.32082,-1.17456 -0.39122,-0.78249 -0.43981,-1.85735 -0.14626,-3.22667 0.48904,-1.56497 1.27025,-3.66778 2.34615,-6.30864 0.9781,-2.738636 2.10291,-5.722516 3.37444,-8.950236 l 3.39385,-8.612978 c -1.45166,1.45e-4 -2.92014,-0.01155 -4.42663,-0.04332 -0.0445,-0.0015 -0.0883,-0.0058 -0.13282,-0.0087 -2.29871,0.05516 -4.67315,0.06383 -7.12051,0.03004 0.18599,0.780648 -0.0604,1.849007 -0.73877,3.205798 0.8803,2.543069 1.66299,4.88958 2.34764,7.0414 0.68467,2.15179 1.12522,4.25463 1.32083,6.308626 0.0979,1.27153 -5.9e-4,2.64158 -0.29402,4.10873 -0.19552,1.36932 -0.63615,2.641 -1.32083,3.81472 -0.58686,1.17371 -1.46643,2.1517 -2.64015,2.93417 -1.07593,0.68465 -2.44598,1.0268 -4.10874,1.0268 -0.97807,0 -1.90612,-0.14672 -2.78641,-0.44026 -0.88029,-0.39128 -1.56608,-1.12398 -2.05511,-2.19991 -0.97811,-1.95621 -0.97811,-4.10893 0,-6.45636 0.0979,-0.19552 0.24462,-0.34244 0.44027,-0.44026 0.19553,-0.0979 0.39242,-0.14613 0.58803,-0.14613 l 0.58654,0.294 c 0.0979,0 0.0979,0.48898 0,1.46709 -0.0979,0.68468 0.0973,1.51578 0.58653,2.49388 0.39122,0.88029 1.12396,1.41773 2.19988,1.61334 0.78247,0.0979 1.32141,0.0494 1.61484,-0.14613 0.39125,-0.19553 0.68491,-0.3909 0.88055,-0.58651 1.07589,-0.88029 1.71175,-2.05508 1.90736,-3.52222 0.29343,-1.46714 0.34201,-3.17787 0.14625,-5.134046 -0.19552,-1.56496 -0.5877,-3.17876 -1.17456,-4.84152 -0.54351,-1.53998 -0.91144,-2.37833 -1.11935,-2.57596 -0.009,0.0231 -0.0173,0.0459 -0.0537,0.082 -0.58686,0.97808 -1.41799,2.34665 -2.49389,4.10722 -1.0759,1.66276 -2.15229,3.37498 -3.22818,5.135556 -1.17372,1.66278 -2.24862,3.22661 -3.2267,4.69376 -0.9781,1.36932 -1.61393,2.25039 -1.90735,2.64164 -0.22787,0.37964 -0.48637,0.63818 -0.7731,0.78206 -0.0771,0.11986 -0.17655,0.27321 -0.25221,0.39102 -0.88029,1.2715 -1.61452,2.10414 -2.20138,2.49539 -0.78244,0.48903 -1.66204,0.58596 -2.64015,0.29253 -1.07589,-0.19552 -1.71172,-0.83148 -1.90736,-1.90737 -0.2683,-2.01222 -0.11177,-4.23618 0.44774,-6.66234 -0.12592,0.26455 -0.25707,0.52932 -0.38058,0.79402 -1.27156,2.93429 -2.44633,5.0371 -3.52219,6.3086 -0.78253,0.97811 -1.71202,1.46709 -2.78791,1.46709 -1.17372,0.0979 -2.00485,-0.14585 -2.4939,-0.73282 -0.58685,-0.48901 -1.0259,-1.467 -1.31933,-2.93415 -0.0763,-0.38047 -0.12407,-0.77911 -0.14775,-1.19248 -0.74782,1.44164 -1.46262,2.59866 -2.13421,3.39236 -0.7825,0.97811 -1.71205,1.46709 -2.78792,1.46709 -1.17371,0.0979 -2.00488,-0.14585 -2.49389,-0.73282 -0.58686,-0.48901 -1.0259,-1.467 -1.31933,-2.93415 -0.25444,-1.27182 -0.19627,-2.73954 0.1373,-4.37887 -0.30385,0.53039 -0.59664,1.06056 -0.91487,1.59095 -1.17372,1.85837 -2.34699,3.4722 -3.5207,4.84152 -1.17372,1.27154 -2.20164,1.76052 -3.08193,1.46709 -0.48906,-0.19552 -0.97804,-0.68459 -1.46708,-1.46709 -0.39125,-0.78247 -0.63501,-2.15254 -0.7328,-4.10872 l -0.14775,-0.14614 c -0.7825,1.17371 -1.76046,2.39696 -2.93417,3.66847 -1.07593,1.27153 -2.29764,1.9558 -3.66697,2.05362 -2.15182,0.0979 -3.71719,-0.48961 -4.69527,-1.76112 -0.88043,-1.23263 -1.36126,-2.70506 -1.44917,-4.41319 -1.20069,2.16904 -2.21517,3.8082 -3.01924,4.85348 -0.7825,0.9781 -1.71201,1.46709 -2.78791,1.46709 -1.17372,0.0979 -2.00485,-0.14585 -2.49389,-0.7328 -0.54975,-0.39266 -0.96662,-1.11693 -1.26412,-2.14018 -0.34535,0.88032 -0.73714,1.78322 -1.20889,2.72672 -1.07592,2.34743 -2.54285,4.45024 -4.40125,6.30861 -1.76058,1.95621 -3.76646,2.93417 -6.01609,2.93417 -0.97808,0 -1.76078,-0.39061 -2.34764,-1.17308 -0.48904,-0.68468 -0.73279,-1.56574 -0.73279,-2.64164 l 0.14478,-2.20138 c -3e-5,-0.0979 0.29369,-1.07581 0.88054,-2.93417 0.68466,-1.76058 1.51579,-4.01025 2.4939,-6.7489 0.97808,-2.83649 2.05447,-5.867296 3.22819,-9.095016 1.17371,-3.32553 2.29854,-6.553137 3.37444,-9.683065 l 0,-0.14787 c 0.0979,-0.09791 0.14625,-0.194656 0.14625,-0.292504 -2.54307,0.293428 -4.74277,0.684041 -6.60113,1.17308 -1.8584,0.489067 -3.47219,0.734294 -4.84153,0.734294 -0.19553,-0.391277 0.0964,-0.831767 0.87905,-1.320834 0.88029,-0.489039 1.95665,-0.97802 3.22819,-1.467087 1.36932,-0.489039 2.78784,-0.978019 4.25499,-1.467087 1.56496,-0.489038 3.03193,-0.881124 4.40125,-1.174553 1.76057,-4.890472 3.22754,-8.997726 4.40126,-12.323228 1.17371,-3.423351 2.20014,-6.161967 3.08043,-8.215969 -4.89048,-0.391248 -9.63353,-0.586538 -14.23058,-0.586538 -4.49925,0 -8.70483,0.342166 -12.61723,1.026811 -3.81457,0.684683 -7.1406,1.759548 -9.97707,3.226693 -2.83646,1.467144 -4.98772,3.52149 -6.45487,6.16235 -1.17371,3.618952 -0.83159,6.309141 1.02681,8.069714 1.85836,1.662783 4.30334,2.493886 7.33543,2.493886 3.0321,-0.09791 6.25972,-1.027319 9.68305,-2.787893 3.42336,-1.858392 6.16197,-4.450184 8.21597,-7.775707 0.19552,-0.195523 0.29402,-0.342457 0.29402,-0.440273 0.19552,-0.489041 0.39092,-0.879646 0.58654,-1.173074 0.19552,-0.391246 0.39089,-0.831756 0.58653,-1.32082 l 0,-0.146223 0.14776,-0.294009 0,-0.732813 0,-0.880546 -0.14776,0 -0.44028,0.440273 -0.14625,0.146252 -0.14625,-0.146252 -0.14776,0 0,-0.294018 0,-0.146253 c 0.0979,0 0.14776,-0.04982 0.14776,-0.147754 l 0.14625,-0.146252 c 0.0979,-0.09791 0.1961,-0.14478 0.29401,-0.14478 0.0979,-0.09791 0.24462,-0.146252 0.44028,-0.146252 l 0.14625,-0.147754 0.44028,0 0.58653,0 c 0.58686,0 1.12428,0.146714 1.61335,0.440279 l 0.58803,0.880547 0,0.440273 c 0.0979,0.09791 0.0979,0.244649 0,0.440273 l 0,0.292528 -0.14776,0.29401 c -0.19555,0.489073 -0.43939,1.02649 -0.73281,1.613347 -0.29343,0.489065 -0.58713,1.027981 -0.88056,1.614838 -4.89046,8.509439 -12.07994,12.763493 -21.56749,12.763493 -3.22772,0 -6.06324,-1.026423 -8.50849,-3.080425 -2.44522,-2.151822 -3.57005,-5.330991 -3.37445,-9.536804 0.0979,-2.64086 0.92897,-4.842059 2.4939,-6.602632 1.46715,-1.760574 3.37465,-3.177607 5.72208,-4.253498 2.34743,-1.075896 4.93923,-1.908532 7.7757,-2.49539 2.83646,-0.586858 5.62355,-0.97743 8.36223,-1.173075 2.73868,-0.195523 5.28201,-0.294009 7.62944,-0.294009 2.34743,-0.09791 4.20497,-0.146253 5.57432,-0.146253 l 5.86983,0.294019 c 1.95619,0 3.91214,0.09701 5.86835,0.292519 0.68465,-0.880287 1.36894,-1.31933 2.05362,-1.31933 1.66275,0 2.83606,0.537449 3.5207,1.613348 5.18393,0.489033 10.36899,0.879637 15.55289,1.173066 5.18391,0.293429 10.2691,0.440273 15.25739,0.440273 5.28171,0 10.22152,-0.293689 14.81859,-0.880547 4.59705,-0.684645 8.6074,-1.662633 12.0307,-2.934167 2.34743,-1.075897 4.15653,-2.003921 5.42806,-2.786421 1.36933,-0.782461 2.34731,-1.418315 2.93417,-1.907357 0.68468,-0.48907 1.17366,-0.832697 1.46709,-1.028301 0.29343,-0.293429 0.58712,-0.438783 0.88054,-0.438783 z M 541.6172,63.063703 c -0.58686,2.445248 -1.7117,5.282268 -3.37445,8.509986 -1.56497,3.227712 -2.93502,6.552239 -4.10873,9.975595 0.99257,-0.0826 1.98484,-0.151046 2.97744,-0.216317 0.0289,-0.07336 0.0556,-0.150758 0.0836,-0.223826 1.07589,-2.64086 2.05389,-4.987425 2.93417,-7.041427 0.88029,-2.054003 1.56458,-3.717776 2.05362,-4.989279 l 0.88055,-1.907363 c 0.29343,-0.489041 0.73397,-0.831198 1.32083,-1.026811 0.68467,-0.195523 1.41741,-0.244158 2.19988,-0.146252 1.07592,0.195523 1.85859,0.537769 2.34763,1.02681 0.48907,0.489033 0.68435,1.02798 0.58654,1.614838 0,0.586858 -0.24376,1.368058 -0.7328,2.34614 -0.48904,1.07592 -1.22327,2.494426 -2.20137,4.255 -0.97643,1.757598 -2.00202,3.661565 -3.07595,5.711611 1.62497,-0.08895 3.29038,-0.13574 5.0042,-0.13574 0.78247,0.684707 1.22301,1.417441 1.32083,2.199908 0.0979,0.782467 -6.2e-4,1.516675 -0.29402,2.201352 -0.19553,0.586858 -0.4893,1.075839 -0.88055,1.467087 -0.39121,0.39122 -0.68491,0.58654 -0.88054,0.58654 -0.78248,0 -1.61362,-0.04881 -2.49391,-0.146137 -0.78246,-0.09791 -1.80889,-0.1961 -3.08043,-0.294005 -0.49195,-0.04101 -1.2056,-0.08144 -1.78348,-0.122455 -0.0482,0.09184 -0.0965,0.177905 -0.14478,0.270036 -0.97811,2.054002 -1.76078,3.91156 -2.34764,5.57431 -0.9781,2.54307 -1.80925,4.89111 -2.49389,7.04293 -0.58686,2.151816 -1.0274,3.912446 -1.32083,5.281796 -0.0979,1.27151 0.0491,2.00424 0.44029,2.19985 0.19552,0 0.44085,-0.097 0.73428,-0.2925 0.29343,-0.19552 0.48872,-0.39241 0.58653,-0.58804 0.58686,-0.78247 1.27115,-1.76046 2.05362,-2.93418 0.64852,-0.93675 1.26121,-1.87352 1.85662,-2.81027 0.16145,-0.568136 0.34545,-1.146246 0.55818,-1.737236 0.78249,-2.44522 1.9073,-4.69486 3.37444,-6.74886 1.36933,-2.053974 2.98314,-3.76623 4.84153,-5.135556 1.85839,-1.369325 3.81434,-2.053626 5.86834,-2.053626 1.95619,0 3.08101,1.368574 3.37444,4.107253 0.48908,-0.782496 1.07494,-1.662061 1.75961,-2.640167 0.78247,-0.978106 1.71198,-1.467086 2.78791,-1.467086 0.48904,0 1.12489,0.243753 1.90736,0.732792 0.78247,0.391248 1.02772,0.831796 0.73429,1.320834 -0.68468,1.075897 -1.7126,3.130246 -3.08193,6.162356 -1.36932,2.93429 -2.93319,6.89613 -4.69377,11.884436 -0.19552,0.19553 -0.29401,0.43937 -0.29401,0.7328 -0.19553,0.68464 -0.0974,0.9299 0.29401,0.73426 0.19553,0 0.63468,-0.53892 1.31933,-1.61481 0.78249,-1.07593 1.61361,-2.34758 2.49389,-3.81472 0.88029,-1.467136 1.76137,-2.884176 2.64165,-4.253496 0.32044,-0.53404 0.58509,-0.94524 0.85369,-1.36263 0.29703,-0.80439 0.60961,-1.61833 0.95069,-2.45209 l 2.64016,-6.456364 c 0.88029,-2.151822 1.66299,-4.059341 2.34763,-5.722095 -0.39121,-0.09791 -0.92866,-0.194657 -1.61334,-0.292534 -0.58686,-0.09791 -1.22271,-0.1961 -1.90736,-0.294006 -0.68468,-0.09791 -1.27203,-0.194657 -1.7611,-0.292534 -0.58683,-0.09791 -0.92899,-0.14787 -1.02681,-0.14787 -0.48904,-0.195523 -0.73279,-0.390901 -0.73279,-0.586511 l 0,-0.732792 c 0,-0.782497 0.34215,-1.174553 1.0268,-1.174553 0.97811,-0.09791 2.05298,-0.09791 3.2267,0 1.27153,0 2.59312,0.04852 3.96246,0.146136 l 0.14626,-0.146136 c 1.76057,-4.49923 2.93384,-7.678411 3.5207,-9.536809 0.31091,-0.843868 0.53026,-1.450371 0.69997,-1.931236 -0.60408,0.0061 -1.21482,0.02397 -1.81633,0.02397 -4.59707,0 -9.68373,-0.292199 -15.25887,-0.879057 -5.57515,-0.586856 -11.34461,-1.174243 -17.311,-1.761101 z m 43.35586,2.367039 c -0.71204,0.03492 -1.41665,0.05409 -2.12526,0.08208 0.15653,0.731952 -0.10426,1.722107 -0.79549,2.978944 -0.29342,0.684675 -0.58711,1.3205 -0.88054,1.907358 -0.19552,0.489041 -0.48934,1.076424 -0.88056,1.761099 -0.29343,0.586857 -0.68402,1.319589 -1.17306,2.199876 -0.42528,0.765486 -0.95807,1.74596 -1.53127,2.8073 0.95391,0.02022 1.9259,0.05487 2.93268,0.126787 l 0.14625,-0.146137 c 1.76059,-4.49923 2.93386,-7.678411 3.52072,-9.536808 0.36502,-0.990812 0.61613,-1.690137 0.78653,-2.180474 z m -70.88721,1.495438 c -2.82215,6.071558 -10.15873,10.583778 -16.80805,9.07415 -2.24716,-1.668964 1.1549,-4.407216 2.7506,-5.365391 4.18205,-2.412185 9.55721,-3.580445 14.05745,-3.708759 z m 42.51709,2.031232 c 0.26946,0.01444 0.60416,0.09048 1.02532,0.243263 3.92927,0.336089 7.86342,0.639811 11.80235,0.837266 -0.84606,2.083291 -4.26083,0.526734 -6.1131,1.743196 -3.38792,0.987663 -4.75205,5.053291 -4.03561,7.987609 -1.85835,-1.249556 -4.48113,-0.376086 -5.38925,-2.817756 -2.25585,-1.281036 1.00824,-3.718113 1.10889,-5.63849 0.48633,-1.283402 0.43324,-2.414074 1.6014,-2.355096 z m 19.14076,12.591872 c -1.76057,3.716757 -3.52123,7.678596 -5.2818,11.88442 -1.76057,4.108 -3.12913,7.776146 -4.10724,11.003866 -0.39125,1.27153 -0.48965,2.0542 -0.29401,2.34763 0.0979,0.19553 0.1961,0.29254 0.29401,0.29254 0.19552,0.19552 0.43937,0.14729 0.7328,-0.14614 0.39124,-0.29343 0.68493,-0.58712 0.88054,-0.88055 0.58686,-0.78247 1.22268,-1.76046 1.90736,-2.93417 0.72099,-1.17161 1.38881,-2.29183 2.02676,-3.380406 0.0904,-0.25328 0.15495,-0.46091 0.25372,-0.72834 0.58686,-1.95616 1.32108,-4.00906 2.20137,-6.16085 l 2.64016,-6.456365 c 0.68395,-1.671881 1.25791,-3.069336 1.82378,-4.446026 -1.02978,-0.131407 -2.10425,-0.26397 -3.07745,-0.395493 z m 8.39656,1.044705 c -1.59835,3.415184 -3.19691,7.021413 -4.79526,10.839715 -1.76058,4.108 -3.12913,7.776146 -4.10724,11.003866 -0.39125,1.27153 -0.48962,2.0542 -0.29401,2.34763 0.0979,0.19553 0.1961,0.29254 0.29401,0.29254 0.19552,0.19552 0.43937,0.14729 0.7328,-0.14614 0.39125,-0.29343 0.68493,-0.58712 0.88054,-0.88055 0.58686,-0.78247 1.22269,-1.76046 1.90736,-2.93417 0.78247,-1.27154 1.51521,-2.49475 2.19988,-3.668466 0.68466,-1.2715 1.32051,-2.39632 1.90736,-3.37443 0.52205,-0.82033 0.93207,-1.41478 1.28351,-1.89394 0.84471,-2.26327 1.76087,-4.658216 2.75807,-7.201083 0.39124,-0.978135 0.97863,-1.565513 1.7611,-1.761122 0.78249,-0.293429 1.51669,-0.293429 2.20137,0 0.78246,0.195523 1.36836,0.636186 1.75961,1.320834 0.39121,0.586858 0.39121,1.222698 0,1.907346 -1.07593,1.858364 -2.10233,3.862775 -3.08043,6.014595 -0.97809,2.05401 -1.80922,4.00999 -2.4939,5.868346 -0.68468,1.76057 -1.17366,3.22754 -1.46709,4.40126 -0.29343,1.07592 -0.19639,1.5649 0.29253,1.46708 0.48903,-0.39121 1.12488,-1.12395 1.90735,-2.19987 0.88029,-1.0759 1.76137,-2.25066 2.64165,-3.52219 l 2.64016,-4.107246 c 0.0358,-0.05 0.0558,-0.0788 0.091,-0.12823 0.73747,-1.15907 1.48535,-2.29487 2.25361,-3.39237 1.2715,-1.95621 2.20105,-3.374692 2.78791,-4.254979 0,-0.09791 -0.0487,-0.1961 -0.14625,-0.294006 -0.58686,-1.760573 -0.83208,-2.982289 -0.73429,-3.666966 0.0477,-0.334006 0.12075,-0.64384 0.2149,-0.93129 -3.27725,-0.18166 -6.53741,-0.396909 -9.76216,-0.683551 -1.26775,-0.140938 -2.4313,-0.281588 -3.63413,-0.422382 z m 16.27524,1.264113 c -0.002,0.01444 -0.0118,0.0231 -0.0118,0.0387 l 0,0.440288 c 0,0.39119 0.14671,0.8802 0.44027,1.467058 0.35931,-1.006063 0.47854,-1.638957 0.36267,-1.905844 -0.026,-5.78e-4 -0.0534,-7.8e-4 -0.0806,-0.0015 -0.23797,-0.01155 -0.4726,-0.02888 -0.71041,-0.0387 z m -65.22035,2.605828 c -1.00176,5.7e-5 -2.08837,0.02599 -3.26102,0.0748 -1.95618,4.108004 -3.56999,7.579394 -4.84153,10.415864 -1.2715,2.83649 -2.3479,5.379816 -3.22818,7.629426 -0.88029,2.15182 -1.66296,4.20617 -2.34763,6.16236 -0.68468,1.85839 -1.36895,3.96117 -2.05362,6.3086 1.17371,0.48907 2.39546,6e-5 3.66697,-1.46708 1.36935,-1.46715 2.59256,-3.17938 3.66845,-5.13556 0.80208,-1.48075 1.60377,-3.11372 2.40584,-4.86688 0.0742,-0.64762 0.18311,-1.31581 0.36118,-2.02827 0.48903,-1.9562 1.17333,-4.205836 2.05361,-6.748886 0.78247,-2.54304 1.66355,-5.13483 2.64165,-7.775688 0.31128,-0.871594 0.62301,-1.716733 0.93428,-2.568514 z m 18.02141,3.292353 c -0.5135,0.05487 -1.13797,0.303104 -1.87154,0.743247 -1.36932,0.782464 -2.59107,1.808894 -3.66696,3.080424 -0.97811,1.17372 -1.90762,2.83745 -2.78791,4.9893 -0.29343,0.88029 -0.58712,1.808286 -0.88055,2.786396 -0.29343,0.9781 -0.48875,1.95606 -0.58653,2.93416 -0.0979,0.97811 -0.0979,1.85921 0,2.64167 0.0979,0.68468 0.39148,1.22212 0.88054,1.61334 0.68466,0.58686 1.66264,0.34311 2.93417,-0.73279 1.27151,-1.0759 2.54322,-2.49443 3.81472,-4.25501 1.27154,-1.85839 2.39634,-3.765846 3.37445,-5.722056 1.0759,-2.054 1.76019,-3.76623 2.05362,-5.13555 0,-0.19553 -0.0985,-0.53774 -0.29402,-1.0268 -0.19552,-0.48904 -0.48781,-0.87965 -0.87905,-1.173084 -0.39125,-0.391248 -0.93017,-0.636475 -1.61484,-0.734294 -0.14672,-0.02311 -0.30492,-0.02599 -0.4761,-0.0087 z m 89.58918,8.508511 0.002,0 0.002,0 c 0.27399,-0.0173 0.51952,0.0479 0.73876,0.19408 0.29343,0.14672 0.49024,0.44041 0.58803,0.88055 0.0979,0.39125 -0.026,0.928656 -0.36714,1.613336 0.44014,1.2715 0.83075,2.44628 1.17307,3.52218 0.34235,1.0759 0.56337,2.12658 0.66116,3.15358 0.006,0.0713 -0.003,0.14989 0,0.22238 0.20216,-0.31358 0.39798,-0.62085 0.62086,-0.95517 0.63575,-1.0759 1.29584,-2.10382 1.98049,-3.08193 0.63578,-0.97808 1.10052,-1.68661 1.39395,-2.12675 0,-0.0488 -0.0217,-0.0973 -0.0716,-0.14613 -0.29343,-0.88029 -0.41604,-1.4919 -0.36715,-1.834246 0.0488,-0.34233 0.14727,-0.63602 0.29402,-0.88055 0.19552,-0.29343 0.4636,-0.46449 0.80593,-0.51338 0.39125,-0.0979 0.73338,-0.0494 1.02681,0.14613 0.29343,0.14672 0.49021,0.44041 0.58803,0.88055 0.0979,0.39125 -0.026,0.928656 -0.36715,1.613336 0.44014,1.2715 0.83075,2.44628 1.17307,3.52218 0.34232,1.0759 0.56334,2.12658 0.66116,3.15358 0.0488,0.63578 -0.002,1.32003 -0.14926,2.0536 -0.0979,0.68471 -0.31734,1.32052 -0.65966,1.90737 -0.29343,0.58686 -0.73397,1.07584 -1.32083,1.46709 -0.53796,0.34232 -1.22223,0.51489 -2.05362,0.51489 -0.48904,0 -0.95381,-0.0757 -1.39395,-0.22238 -0.44015,-0.19553 -0.78228,-0.562 -1.02681,-1.09993 -0.48904,-0.97811 -0.48904,-2.05446 0,-3.22818 0.0488,-0.0979 0.12297,-0.1704 0.22088,-0.21949 0.0979,-0.0488 0.19465,-0.0731 0.29252,-0.0731 l 0.29401,0.14613 c 0.0488,0 0.0488,0.24376 0,0.7328 -0.0488,0.34232 0.0479,0.75864 0.29253,1.24768 0.19552,0.44014 0.56346,0.7096 1.10143,0.80742 0.39124,0.0488 0.65921,0.0231 0.80592,-0.0745 0.19553,-0.0979 0.34246,-0.19466 0.44028,-0.29251 0.53793,-0.44014 0.85586,-1.02752 0.95368,-1.76109 0.14671,-0.73357 0.17103,-1.58894 0.0731,-2.56704 -0.0979,-0.78247 -0.29311,-1.5894 -0.58654,-2.42076 -0.27177,-0.76979 -0.4557,-1.18903 -0.55967,-1.288 -0.006,0.0115 -0.008,0.0231 -0.0254,0.0401 -0.29342,0.48904 -0.70973,1.17484 -1.24769,2.05513 -0.53797,0.83139 -1.07539,1.68672 -1.61334,2.56701 -0.58686,0.83136 -1.12431,1.61406 -1.61335,2.34763 -0.21285,0.29808 -0.26686,0.36922 -0.41491,0.57462 -0.0991,0.25588 -0.21397,0.50512 -0.35371,0.74472 -0.29343,0.58685 -0.73397,1.07584 -1.32082,1.46708 -0.53797,0.34233 -1.22226,0.51492 -2.05363,0.51492 -0.48906,0 -0.9538,-0.0742 -1.39394,-0.22094 -0.44015,-0.19552 -0.78231,-0.56202 -1.02682,-1.09995 -0.48907,-0.97811 -0.48907,-2.05447 0,-3.22818 0.0488,-0.0979 0.12298,-0.1704 0.22089,-0.2195 0.0979,-0.0488 0.19468,-0.0731 0.29251,-0.0731 l 0.29402,0.14614 c 0.0488,0 0.0488,0.24375 0,0.73279 -0.0488,0.34233 0.0479,0.75867 0.29252,1.24771 0.19552,0.44014 0.5635,0.7096 1.10144,0.80742 0.39124,0.0488 0.6592,0.0231 0.80592,-0.0748 0.19552,-0.0979 0.34248,-0.19466 0.44027,-0.29253 0.53799,-0.44015 0.8559,-1.02752 0.95368,-1.7611 0.14672,-0.73357 0.17104,-1.58893 0.0731,-2.56704 -0.0979,-0.78246 -0.2931,-1.58939 -0.58653,-2.42076 -0.27177,-0.76978 -0.4557,-1.18899 -0.55968,-1.28799 -0.006,0.0115 -0.008,0.0231 -0.0254,0.0401 -0.24376,0.40635 -0.62461,1.03087 -1.03726,1.70737 0.0202,0.0364 0.0313,0.0786 0.0313,0.12679 0,0.24462 -0.0968,0.48979 -0.29253,0.73429 -0.68464,0.92921 -1.34474,1.85724 -1.98048,2.78642 -0.58686,0.92921 -1.17425,1.76182 -1.7611,2.49539 -0.53799,0.73357 -1.07539,1.34368 -1.61335,1.83272 -0.53796,0.44014 -1.10111,0.66117 -1.68797,0.66117 -0.24462,0 -0.51399,-0.0497 -0.80742,-0.14787 -0.29343,-0.0488 -0.58563,-0.19582 -0.87906,-0.44026 -0.29343,-0.29343 -0.53865,-0.65981 -0.73428,-1.09996 -0.19552,-0.44014 -0.29253,-1.02604 -0.29253,-1.75962 0,-1.22261 0.21947,-2.34743 0.65967,-3.37443 0.26704,-0.65276 0.56407,-1.25504 0.88503,-1.81781 0.62183,-0.85941 1.26084,-1.70755 1.89691,-2.55659 0.1732,-0.18426 0.34624,-0.38305 0.51938,-0.54175 0.63575,-0.58685 1.10052,-0.97746 1.39395,-1.17307 0.73357,-0.48907 1.44207,-0.782756 2.12675,-0.880546 0.68464,-0.0979 1.2221,-0.0231 1.61335,0.220936 0.44014,0.24462 0.68536,0.65935 0.73429,1.24621 0.0488,0.53793 -0.19639,1.19802 -0.73429,1.98049 -0.24462,0.34236 -0.5125,0.48916 -0.80593,0.44026 -0.24462,-0.0979 -0.31862,-0.26888 -0.22088,-0.51338 0.14671,-0.48904 0.22088,-0.85545 0.22088,-1.09996 0,-0.29343 -0.24523,-0.36756 -0.73429,-0.22094 -0.24462,0.0979 -0.5125,0.26888 -0.80592,0.51342 -0.29343,0.24462 -0.70974,0.63659 -1.2477,1.17455 -0.83139,0.83136 -1.61406,1.88202 -2.34763,3.15355 -0.68468,1.27154 -1.02681,2.44632 -1.02681,3.52222 0,1.07592 0.34213,1.61334 1.02681,1.61334 0.24462,0 0.61087,-0.29372 1.09993,-0.88055 0.46663,-0.50908 0.95618,-1.0834 1.45963,-1.7029 0.44242,-0.73516 0.94128,-1.52615 1.52678,-2.40435 0.63575,-1.0759 1.29582,-2.1038 1.98049,-3.08193 0.63576,-0.97811 1.10053,-1.68658 1.39396,-2.12672 0,-0.0488 -0.0231,-0.0973 -0.0731,-0.14614 -0.29343,-0.88028 -0.41607,-1.49192 -0.36714,-1.834246 0.0488,-0.34235 0.14729,-0.63604 0.294,-0.88054 0.19553,-0.29343 0.46361,-0.46452 0.80594,-0.51342 0.0969,-0.0231 0.1911,-0.0401 0.28207,-0.0462 z m 0.22984,0.98201 c -0.0488,0.0115 -0.0731,0.0422 -0.0731,0.091 l 0,0.22094 c 0,0.19552 0.0742,0.43936 0.22088,0.732786 0.24462,-0.684616 0.26865,-1.026796 0.0731,-1.026796 -0.0979,-0.0231 -0.17207,-0.0292 -0.22088,-0.0173 z m 7.73689,0 c -0.0488,0.0115 -0.0731,0.0422 -0.0731,0.091 l 0,0.22094 c 0,0.19552 0.0742,0.43936 0.22088,0.732786 0.24462,-0.684616 0.26893,-1.026796 0.0731,-1.026796 -0.0979,-0.0231 -0.17207,-0.0292 -0.22088,-0.0173 z"
       id="path3735-2-1-2" />
  </g>
</svg>
