<?xml version="1.0" encoding="UTF-8" standalone="no"?>
<!-- Created with Inkscape (http://www.inkscape.org/) -->

<svg
   xmlns:dc="http://purl.org/dc/elements/1.1/"
   xmlns:cc="http://creativecommons.org/ns#"
   xmlns:rdf="http://www.w3.org/1999/02/22-rdf-syntax-ns#"
   xmlns:svg="http://www.w3.org/2000/svg"
   xmlns="http://www.w3.org/2000/svg"
   xmlns:xlink="http://www.w3.org/1999/xlink"
   xmlns:sodipodi="http://sodipodi.sourceforge.net/DTD/sodipodi-0.dtd"
   xmlns:inkscape="http://www.inkscape.org/namespaces/inkscape"
   width="210mm"
   height="297mm"
   viewBox="0 0 210 297"
   version="1.1"
   id="svg8"
   inkscape:version="0.91 r13725"
   sodipodi:docname="logot.svg">
  <defs
     id="defs2">
    <linearGradient
       inkscape:collect="always"
       id="linearGradient4597">
      <stop
         style="stop-color:#2affd5;stop-opacity:1;"
         offset="0"
         id="stop4593" />
      <stop
         style="stop-color:#ff43d5;stop-opacity:0.955"
         offset="1"
         id="stop4595" />
    </linearGradient>
    <radialGradient
       inkscape:collect="always"
       xlink:href="#linearGradient4597"
       id="radialGradient4599-4-0"
       cx="550.05774"
       cy="451.96844"
       fx="550.05774"
       fy="451.96844"
       r="107.92377"
       gradientTransform="matrix(-0.87248731,0.4848844,-0.28556049,-0.5138292,744.65041,116.53148)"
       gradientUnits="userSpaceOnUse" />
  </defs>
  <sodipodi:namedview
     id="base"
     pagecolor="#ffffff"
     bordercolor="#666666"
     borderopacity="1.0"
     inkscape:pageopacity="0.0"
     inkscape:pageshadow="2"
     inkscape:zoom="0.98994949"
     inkscape:cx="556.1383"
     inkscape:cy="339.64969"
     inkscape:document-units="mm"
     inkscape:current-layer="layer1"
     showgrid="false"
     inkscape:snap-page="false"
     inkscape:snap-text-baseline="true"
     inkscape:snap-center="false"
     inkscape:snap-others="false"
     inkscape:snap-nodes="false"
     inkscape:snap-global="false"
     inkscape:window-width="1280"
     inkscape:window-height="687"
     inkscape:window-x="0"
     inkscape:window-y="1"
     inkscape:window-maximized="1" />
  <metadata
     id="metadata5">
    <rdf:RDF>
      <cc:Work
         rdf:about="">
        <dc:format>image/svg+xml</dc:format>
        <dc:type
           rdf:resource="http://purl.org/dc/dcmitype/StillImage" />
        <dc:title />
      </cc:Work>
    </rdf:RDF>
  </metadata>
  <g
     inkscape:label="Capa 1"
     inkscape:groupmode="layer"
     id="layer1">
    <flowRoot
       xml:space="preserve"
       id="flowRoot3680"
       style="fill:black;fill-opacity:1;stroke:none;font-family:'Atelier du Machiniste';font-style:normal;font-weight:normal;font-size:40px;line-height:25px;letter-spacing:0px;word-spacing:0px;-inkscape-font-specification:'Atelier du Machiniste';font-stretch:normal;font-variant:normal;"><flowRegion
         id="flowRegion3682"
         style="-inkscape-font-specification:'Atelier du Machiniste';font-family:'Atelier du Machiniste';font-weight:normal;font-style:normal;font-stretch:normal;font-variant:normal;"><rect
           id="rect3684"
           width="405.71429"
           height="238.57143"
           x="225.71428"
           y="486.80539"
           style="-inkscape-font-specification:'Atelier du Machiniste';font-family:'Atelier du Machiniste';font-weight:normal;font-style:normal;font-stretch:normal;font-variant:normal;" /></flowRegion><flowPara
         id="flowPara3686" /></flowRoot>    <path
       inkscape:connector-curvature="0"
       style="opacity:1;fill:url(#radialGradient4599-4-0);fill-opacity:1;fill-rule:nonzero;stroke:none;stroke-width:0.1889881"
       d="m 125.30552,158.79607 0,5.3e-4 c -2.33527,0.48882 -4.12764,2.3784 -6.53138,2.73627 -3.41132,0.85713 -6.97744,0.43972 -10.45828,0.50694 -2.48681,-0.13565 -5.2272,0.0906 -7.60057,-0.93327 -1.123893,-0.0886 -2.184613,0.44031 -3.333133,0.29094 -4.4814,0.13029 -9.27425,-0.30384 -13.4121,1.75286 -2.32758,1.20142 -3.84504,3.84548 -3.3538,6.47609 0.19686,3.17935 3.50637,5.24454 6.50193,4.98574 0.96351,-0.0339 1.91941,-0.22178 2.83084,-0.53381 0.20796,1.32304 1.72648,1.85421 2.89904,1.48828 -0.88665,2.79718 -2.20217,5.50784 -2.61172,8.42842 -0.0629,2.23603 2.55793,3.82359 4.52892,2.79725 1.33068,-0.57045 2.3551,-1.67421 3.13314,-2.86546 0.91219,0.26874 1.83888,-0.3584 2.546103,-0.62425 1.19034,0.819 2.87171,0.64883 4.02353,0.0827 0.90268,0.75279 2.28885,0.6413 3.16673,-0.094 0.92565,0.91331 2.46478,0.95246 3.51348,0.25425 0.96161,0.67404 2.25613,0.3835 3.17603,-0.003 1.19254,0.87102 2.87172,0.37434 3.80132,-0.51263 1.27362,1.13637 3.23963,1.15576 4.71289,0.41186 1.20635,0.73928 2.95063,0.20579 3.63854,-0.84233 1.05092,1.8015 3.93368,1.42428 4.80487,-0.35347 0.20119,0.99094 1.16797,1.82668 2.21434,1.42886 0.41235,-0.008 0.7268,-0.73499 1.04231,-0.24443 0.73313,0.5092 1.83627,0.41647 2.45876,-0.19586 1.15026,1.18008 3.26033,0.22525 3.47473,-1.31361 0.30156,-1.4777 -0.43763,-2.88164 -0.57464,-4.32532 -0.15321,-0.42637 -0.55377,-0.7527 -1.00408,-0.786 -0.0643,-0.005 -0.13007,-0.004 -0.19585,0.004 -0.89278,0.0868 -1.38428,1.06316 -1.22215,1.87586 -0.13385,-0.0291 -0.0988,-0.77287 -0.26148,-1.04955 -0.27787,-0.97671 -1.61834,-1.035 -2.19211,-0.31626 -0.23508,0.0157 -0.46012,0.0601 -0.678,0.12299 0.18565,-0.3087 0.35592,-0.62624 0.49868,-0.95912 0.24297,-0.89681 -0.21629,-1.91576 -1.03405,-2.33371 -0.012,-0.7011 0.1639,-1.13509 0.89762,-1.28777 1.76582,-0.83622 3.19982,-2.62847 2.88355,-4.67517 0.3003,-1.4842 -1.09978,-3.10763 -2.6231,-2.47372 -0.70295,0.42825 -1.54626,1.12697 -1.42265,-0.24494 -0.49868,-2.57657 -4.64216,-3.08544 -5.76244,-0.68575 -0.60225,1.02434 -0.96729,2.16231 -1.46554,3.2365 -0.92269,0.0751 -2.08574,0.28601 -2.86856,0.17621 0.27327,-0.56257 -0.0919,-1.39458 0.0243,-1.7849 2.02447,-0.65846 4.16895,-1.74676 5.24671,-3.66179 0.83093,-2.04225 -1.47716,-4.07362 -3.41272,-3.95635 z m -0.61856,2.11305 5.3e-4,0 c 1.04987,0 1.71034,0.37219 1.98127,1.11725 -0.0339,0.0677 -0.0506,0.11857 -0.0506,0.15244 0.0339,0 0.0506,0.0341 0.0506,0.1018 0,0.0677 -0.0341,0.16943 -0.1018,0.30489 -0.0677,0.1016 -0.22027,0.23685 -0.45734,0.40618 -0.74507,0.67733 -1.64248,1.21934 -2.69234,1.62574 -1.04987,0.4064 -2.18421,0.74503 -3.40341,1.01596 -0.55948,0.11189 -1.13531,0.20767 -1.72496,0.28939 0.23297,0.25395 0.18528,0.68147 -0.14676,1.28519 -0.1016,0.23707 -0.20329,0.45723 -0.30489,0.66043 -0.0677,0.16933 -0.16943,0.37271 -0.30489,0.60978 -0.1016,0.2032 -0.23685,0.45691 -0.40618,0.76171 -0.16933,0.3048 -0.37272,0.67749 -0.60978,1.11776 0.58892,0.0376 1.20905,0.0688 1.84433,0.0971 0.1746,-0.22342 0.31756,-0.47328 0.4191,-0.75758 0.16933,-0.47413 0.2878,-0.93122 0.35553,-1.37149 0.1016,-0.47413 0.186,-0.88038 0.25373,-1.21905 0.0677,-0.33866 0.18621,-0.50798 0.35553,-0.50798 0.4064,0 0.77911,0.11847 1.11777,0.35554 0.33867,0.2032 0.50797,0.4742 0.50797,0.81287 0,0.37253 -0.18608,0.81233 -0.55862,1.32033 -0.13546,0.16934 -0.30478,0.38948 -0.50798,0.66043 -0.2032,0.23705 -0.44065,0.45722 -0.71158,0.66042 -0.0376,0.0323 -0.0774,0.0613 -0.11679,0.0909 0.61272,0.0213 1.24511,0.0388 1.89756,0.0522 0.98611,-0.0241 1.95012,-0.071 2.88819,-0.14315 1.0869,-0.082 2.1043,-0.21395 3.0546,-0.39532 0.12032,-0.29423 0.26805,-0.65244 0.3793,-0.92553 0.37255,-0.94825 0.67709,-1.7099 0.91416,-2.28564 0.27093,-0.6096 0.40669,-0.93146 0.40669,-0.96532 0.23707,-0.4064 0.67739,-0.54165 1.32085,-0.40617 0.37254,0.0677 0.64354,0.1862 0.81287,0.35553 0.2032,0.16934 0.28761,0.37219 0.25374,0.60926 -0.0339,0.2032 -0.13555,0.4915 -0.3049,0.86403 -0.23641,0.49911 -0.5661,1.17129 -0.94516,1.93529 0.87537,-0.39441 1.53773,-0.88638 1.98179,-1.47847 0.22504,0.69762 0.26665,1.3112 0.13281,1.84433 1.36591,-0.43829 2.34893,-1.05227 2.94297,-1.84433 0.33867,1.04986 0.27106,1.91373 -0.20308,2.59106 -0.44026,0.64347 -1.16837,1.15141 -2.18437,1.52394 -1.016,0.33867 -2.23526,0.55882 -3.65766,0.66042 -0.21292,0.0104 -0.43162,0.0173 -0.64853,0.0253 -0.0708,0.14228 -0.14158,0.29039 -0.21239,0.43202 -0.508,0.98213 -0.93154,1.82869 -1.27021,2.53989 -0.33867,0.7112 -0.47443,1.01576 -0.40669,0.91416 0.47412,-0.54187 0.98258,-1.13421 1.52445,-1.77767 0.57573,-0.67733 1.15129,-1.18579 1.72703,-1.52445 0.54186,-0.3048 1.01573,-0.35513 1.42213,-0.15193 0.44027,0.16933 0.52518,0.69404 0.25425,1.57458 -0.1016,0.3048 -0.22007,0.64343 -0.35553,1.01596 -0.13547,0.37254 -0.27123,0.762 -0.4067,1.1684 l -0.40617,1.11776 c -0.1016,0.33867 -0.18652,0.62646 -0.25425,0.86352 0.37253,-0.47413 0.74523,-0.98207 1.11776,-1.52394 0.4064,-0.54186 0.74502,-0.93134 1.01596,-1.16841 0.16933,0 0.2878,0.0676 0.35553,0.20309 0.0677,0.13547 1.1e-4,0.33885 -0.20309,0.60978 -0.508,0.64347 -0.9483,1.20226 -1.32085,1.67639 -0.37253,0.47414 -0.72793,0.948 -1.0666,1.42213 -0.16933,0.37253 -0.32187,0.72845 -0.45733,1.06712 -0.1016,0.33866 -0.18599,0.57561 -0.25374,0.71107 -0.16933,0.27094 -0.35593,0.45702 -0.55913,0.55862 -0.2032,0.1016 -0.40607,0.13567 -0.60927,0.1018 -0.16933,-0.0677 -0.32187,-0.20349 -0.45734,-0.40669 -0.1016,-0.2032 -0.11841,-0.45691 -0.0506,-0.76171 0.0339,-0.13547 0.15234,-0.54172 0.35554,-1.21905 0.2032,-0.67733 0.40606,-1.38865 0.60926,-2.13372 0.23707,-0.74507 0.44046,-1.40554 0.60979,-1.98127 0.16934,-0.57574 0.25424,-0.84673 0.25424,-0.81287 0.1016,-0.27093 0.11843,-0.40618 0.0506,-0.40618 -0.0339,0 -0.13555,0.0676 -0.30489,0.20309 l -0.60978,0.60926 c -0.23707,0.27094 -0.49078,0.55923 -0.76171,0.86403 -0.23707,0.3048 -0.474,0.59259 -0.71107,0.86352 -0.2032,0.23707 -0.33896,0.40638 -0.40669,0.50798 -0.47414,0.6096 -0.8636,1.21923 -1.1684,1.82883 -0.27094,0.57574 -0.54193,1.21891 -0.81288,1.93011 -0.1016,0.37253 -0.25362,0.64353 -0.45682,0.81287 -0.23706,0.13546 -0.45722,0.16953 -0.66042,0.1018 -0.2032,-0.0339 -0.35574,-0.16963 -0.45734,-0.40669 -0.13546,-0.27094 -0.15228,-0.64311 -0.0506,-1.11724 0.16933,-0.54187 0.43983,-1.26997 0.81236,-2.18437 0.33867,-0.94827 0.72813,-1.98143 1.1684,-3.09903 l 1.17512,-2.98225 c -0.50263,5e-5 -1.0111,-0.004 -1.53272,-0.015 -0.0154,-5.3e-4 -0.0306,-0.002 -0.046,-0.003 -0.79593,0.0191 -1.61808,0.0221 -2.46548,0.0103 0.0644,0.2703 -0.0209,0.64022 -0.2558,1.11001 0.3048,0.88054 0.57581,1.69302 0.81287,2.43809 0.23707,0.74506 0.38961,1.47316 0.45734,2.18436 0.0339,0.44028 -2e-4,0.91466 -0.1018,1.42266 -0.0677,0.47413 -0.22027,0.91444 -0.45734,1.32084 -0.2032,0.4064 -0.50776,0.74503 -0.91416,1.01597 -0.37254,0.23705 -0.84692,0.35553 -1.42265,0.35553 -0.33866,0 -0.66,-0.0508 -0.9648,-0.15245 -0.3048,-0.13547 -0.54225,-0.38918 -0.71158,-0.76171 -0.33867,-0.67734 -0.33867,-1.42272 0,-2.23552 0.0339,-0.0677 0.0847,-0.11858 0.15244,-0.15245 0.0677,-0.0339 0.13588,-0.0506 0.20361,-0.0506 l 0.20309,0.10181 c 0.0339,0 0.0339,0.16931 0,0.50798 -0.0339,0.23707 0.0337,0.52484 0.20309,0.86351 0.13545,0.3048 0.38917,0.49089 0.7617,0.55862 0.27094,0.0339 0.45754,0.0171 0.55914,-0.0506 0.13548,-0.0677 0.23715,-0.13536 0.3049,-0.20308 0.37252,-0.3048 0.59269,-0.71157 0.66042,-1.21957 0.1016,-0.508 0.11842,-1.10034 0.0506,-1.77767 -0.0677,-0.54187 -0.20349,-1.10065 -0.40669,-1.67638 -0.18819,-0.53322 -0.31559,-0.82351 -0.38758,-0.89194 -0.003,0.008 -0.006,0.0159 -0.0186,0.0284 -0.2032,0.33867 -0.49098,0.81254 -0.86351,1.42214 -0.37253,0.57573 -0.74523,1.16858 -1.11776,1.77818 -0.4064,0.57575 -0.77859,1.11723 -1.11725,1.62523 -0.33867,0.47413 -0.55882,0.7792 -0.66042,0.91467 -0.0789,0.13145 -0.16841,0.22097 -0.26769,0.27079 -0.0267,0.0415 -0.0611,0.0946 -0.0873,0.13539 -0.3048,0.44026 -0.55902,0.72856 -0.76222,0.86403 -0.27092,0.16933 -0.57549,0.20289 -0.91416,0.10129 -0.37253,-0.0677 -0.59268,-0.2879 -0.66042,-0.66043 -0.0929,-0.69673 -0.0387,-1.46678 0.15503,-2.30684 -0.0436,0.0916 -0.089,0.18328 -0.13178,0.27492 -0.44028,1.016 -0.84704,1.7441 -1.21956,2.18437 -0.27095,0.33867 -0.59279,0.50798 -0.96532,0.50798 -0.4064,0.0339 -0.69418,-0.0505 -0.86351,-0.25374 -0.2032,-0.16933 -0.35522,-0.50796 -0.45682,-1.01596 -0.0264,-0.13174 -0.043,-0.26976 -0.0512,-0.41289 -0.25893,0.49917 -0.50643,0.89979 -0.73897,1.17461 -0.27094,0.33867 -0.5928,0.50798 -0.96532,0.50798 -0.4064,0.0339 -0.69419,-0.0505 -0.86351,-0.25374 -0.2032,-0.16933 -0.35522,-0.50796 -0.45682,-1.01596 -0.0881,-0.44037 -0.068,-0.94856 0.0475,-1.51618 -0.10521,0.18365 -0.20659,0.36722 -0.31678,0.55087 -0.4064,0.64346 -0.81264,1.20225 -1.21904,1.67638 -0.4064,0.44027 -0.76232,0.60958 -1.06712,0.50798 -0.16934,-0.0677 -0.33865,-0.23704 -0.50798,-0.50798 -0.13547,-0.27093 -0.21987,-0.74532 -0.25373,-1.42265 l -0.0512,-0.0506 c -0.27094,0.4064 -0.60956,0.82995 -1.01596,1.27021 -0.37254,0.44027 -0.79556,0.67719 -1.26969,0.71106 -0.74507,0.0339 -1.28708,-0.16952 -1.62574,-0.60978 -0.30485,-0.4268 -0.47134,-0.93663 -0.50178,-1.52807 -0.415743,0.75103 -0.767003,1.31859 -1.045413,1.68052 -0.27094,0.33867 -0.59279,0.50798 -0.96532,0.50798 -0.4064,0.0339 -0.69418,-0.0505 -0.86351,-0.25373 -0.19035,-0.13596 -0.33469,-0.38674 -0.4377,-0.74104 -0.11958,0.30481 -0.25524,0.61744 -0.41858,0.94412 -0.37254,0.8128 -0.88047,1.54091 -1.52394,2.18437 -0.6096,0.67734 -1.30414,1.01595 -2.08307,1.01595 -0.33867,0 -0.60968,-0.13524 -0.81288,-0.40617 -0.16933,-0.23707 -0.25373,-0.54214 -0.25373,-0.91467 l 0.0501,-0.76223 c -1e-5,-0.0339 0.10169,-0.3725 0.30489,-1.01596 0.23706,-0.6096 0.52485,-1.38855 0.86352,-2.33681 0.33866,-0.98214 0.71136,-2.03156 1.11776,-3.14916 0.4064,-1.15147 0.79587,-2.26904 1.1684,-3.35277 l 0,-0.0512 c 0.0339,-0.0339 0.0506,-0.0674 0.0506,-0.10128 -0.88054,0.1016 -1.64219,0.23684 -2.28565,0.40618 -0.64347,0.16933 -1.20224,0.25424 -1.67638,0.25424 -0.0677,-0.13547 0.0334,-0.28799 0.30437,-0.45733 0.3048,-0.16933 0.6775,-0.33864 1.11777,-0.50798 0.47413,-0.16933 0.96529,-0.33864 1.47329,-0.50798 0.54187,-0.16933 1.04981,-0.3051 1.52394,-0.4067 0.6096,-1.69333 1.11754,-3.11546 1.52394,-4.26692 0.4064,-1.18534 0.7618,-2.13359 1.0666,-2.84479 -1.69333,-0.13547 -3.33562,-0.20309 -4.92735,-0.20309 -1.55787,0 -3.01405,0.11848 -4.36873,0.35554 -1.3208,0.23707 -2.47243,0.60924 -3.45457,1.11724 -0.98212,0.508 -1.727,1.21932 -2.235,2.13372 -0.4064,1.25307 -0.28794,2.18455 0.35553,2.79415 0.64346,0.57574 1.49004,0.86351 2.5399,0.86351 1.04987,-0.0339 2.16744,-0.35572 3.35277,-0.96532 1.18534,-0.64346 2.13358,-1.54087 2.84478,-2.69234 0.0677,-0.0677 0.10181,-0.11857 0.10181,-0.15244 0.0677,-0.16933 0.13535,-0.30458 0.20309,-0.40618 0.0677,-0.13547 0.13534,-0.288 0.20308,-0.45733 l 0,-0.0506 0.0512,-0.1018 0,-0.25374 0,-0.30489 -0.0512,0 -0.15244,0.15245 -0.0506,0.0506 -0.0506,-0.0506 -0.0512,0 0,-0.10181 0,-0.0506 c 0.0339,0 0.0512,-0.0172 0.0512,-0.0512 l 0.0506,-0.0506 c 0.0339,-0.0339 0.0679,-0.0501 0.1018,-0.0501 0.0339,-0.0339 0.0847,-0.0506 0.15245,-0.0506 l 0.0506,-0.0512 0.15244,0 0.20309,0 c 0.2032,0 0.38928,0.0508 0.55862,0.15245 l 0.20361,0.30489 0,0.15244 c 0.0339,0.0339 0.0339,0.0847 0,0.15245 l 0,0.10128 -0.0512,0.10181 c -0.0677,0.16934 -0.15214,0.35542 -0.25374,0.55862 -0.1016,0.16934 -0.20329,0.35594 -0.30489,0.55914 -1.69333,2.9464 -4.18269,4.41937 -7.46776,4.41937 -1.1176,0 -2.09941,-0.3554 -2.94608,-1.0666 -0.84666,-0.74508 -1.23613,-1.84586 -1.1684,-3.30213 0.0339,-0.9144 0.32165,-1.67657 0.86351,-2.28617 0.508,-0.6096 1.16848,-1.10024 1.98128,-1.47277 0.8128,-0.37253 1.71021,-0.66083 2.69234,-0.86403 0.98213,-0.2032 1.94716,-0.33844 2.89543,-0.40618 0.94827,-0.0677 1.8289,-0.1018 2.6417,-0.1018 0.8128,-0.0339 1.45597,-0.0506 1.93011,-0.0506 l 2.03244,0.10181 c 0.67733,0 1.35457,0.0336 2.03191,0.10128 0.23706,-0.3048 0.474,-0.45682 0.71107,-0.45682 0.575733,0 0.981993,0.1861 1.219053,0.55863 1.79494,0.16932 3.59027,0.30457 5.3852,0.40617 1.79493,0.1016 3.55568,0.15245 5.28288,0.15245 1.8288,0 3.53921,-0.10169 5.13095,-0.30489 1.59173,-0.23706 2.98032,-0.57569 4.16564,-1.01596 0.8128,-0.37253 1.4392,-0.69386 1.87947,-0.9648 0.47413,-0.27093 0.81276,-0.49109 1.01596,-0.66043 0.23707,-0.16934 0.40638,-0.28832 0.50798,-0.35604 0.1016,-0.1016 0.20329,-0.15193 0.30489,-0.15193 z m -23.6213,4.41937 c -0.2032,0.84667 -0.59267,1.82899 -1.168403,2.94659 -0.54187,1.1176 -1.01626,2.26872 -1.42266,3.45405 0.34368,-0.0286 0.68726,-0.0523 1.03095,-0.0749 0.01,-0.0254 0.0192,-0.0522 0.0289,-0.0775 0.37253,-0.9144 0.711163,-1.72689 1.015963,-2.43809 0.3048,-0.7112 0.54173,-1.28728 0.71106,-1.72754 l 0.30489,-0.66043 c 0.1016,-0.16933 0.25414,-0.2878 0.45734,-0.35553 0.23707,-0.0677 0.49078,-0.0846 0.76171,-0.0506 0.37254,0.0677 0.64354,0.18621 0.81287,0.35554 0.16934,0.16933 0.23696,0.35594 0.20309,0.55914 0,0.2032 -0.0844,0.47369 -0.25373,0.81235 -0.16933,0.37254 -0.42356,0.8637 -0.76223,1.4733 -0.33809,0.60857 -0.6932,1.26782 -1.06505,1.97765 0.56265,-0.0308 1.1393,-0.047 1.73271,-0.047 0.27093,0.23707 0.42347,0.49078 0.45734,0.76171 0.0339,0.27093 -2.1e-4,0.52516 -0.10181,0.76223 -0.0677,0.2032 -0.16942,0.37251 -0.30489,0.50798 -0.13546,0.13546 -0.23715,0.20309 -0.30489,0.20309 -0.27093,0 -0.55871,-0.0169 -0.86351,-0.0506 -0.27093,-0.0339 -0.62633,-0.0679 -1.0666,-0.1018 -0.17034,-0.0142 -0.41744,-0.0282 -0.61754,-0.0424 -0.0167,0.0318 -0.0334,0.0616 -0.0501,0.0935 -0.33867,0.7112 -0.609673,1.35438 -0.812873,1.93011 -0.33867,0.88054 -0.62645,1.69355 -0.86351,2.43861 -0.2032,0.74507 -0.35574,1.3547 -0.45734,1.82883 -0.0339,0.44027 0.017,0.69397 0.15245,0.76171 0.0677,0 0.15265,-0.0336 0.25425,-0.10128 0.1016,-0.0677 0.16922,-0.13587 0.20308,-0.20361 0.2032,-0.27093 0.44014,-0.60956 0.71107,-1.01596 0.224553,-0.32435 0.436703,-0.64871 0.642863,-0.97306 0.0559,-0.19672 0.11961,-0.39689 0.19327,-0.60152 0.27094,-0.84666 0.6604,-1.62561 1.1684,-2.33681 0.47413,-0.71119 1.03292,-1.30405 1.67639,-1.77818 0.64346,-0.47413 1.32071,-0.71107 2.03191,-0.71107 0.67733,0 1.06681,0.47386 1.16841,1.42214 0.16934,-0.27095 0.37219,-0.57549 0.60926,-0.91416 0.27093,-0.33867 0.59278,-0.50798 0.96532,-0.50798 0.16933,0 0.38949,0.0844 0.66042,0.25373 0.27093,0.13547 0.35585,0.28801 0.25425,0.45734 -0.23707,0.37253 -0.59299,1.08385 -1.06712,2.13372 -0.47413,1.016 -1.01562,2.38779 -1.62522,4.11499 -0.0677,0.0677 -0.1018,0.15213 -0.1018,0.25373 -0.0677,0.23707 -0.0337,0.32199 0.1018,0.25425 0.0677,0 0.21976,-0.1866 0.45682,-0.55914 0.27094,-0.37253 0.55871,-0.81285 0.86351,-1.32085 0.3048,-0.508 0.60987,-0.99865 0.91467,-1.47278 0.11095,-0.18491 0.20259,-0.32728 0.29559,-0.4718 0.10285,-0.27852 0.21108,-0.56035 0.32918,-0.84905 l 0.91416,-2.23552 c 0.3048,-0.74506 0.57581,-1.40554 0.81287,-1.98127 -0.13546,-0.0339 -0.32155,-0.0674 -0.55862,-0.10129 -0.20321,-0.0339 -0.42337,-0.0679 -0.66043,-0.1018 -0.23707,-0.0339 -0.44044,-0.0674 -0.60978,-0.10129 -0.20319,-0.0339 -0.32166,-0.0512 -0.35554,-0.0512 -0.16932,-0.0677 -0.25373,-0.13536 -0.25373,-0.20308 l 0,-0.25373 c 0,-0.27094 0.11848,-0.4067 0.35554,-0.4067 0.33867,-0.0339 0.71084,-0.0339 1.11724,0 0.44027,0 0.89787,0.0169 1.37201,0.0506 l 0.0506,-0.0506 c 0.6096,-1.55785 1.01585,-2.65865 1.21905,-3.30212 0.10765,-0.29219 0.1836,-0.50219 0.24236,-0.66869 -0.20916,0.002 -0.42063,0.008 -0.6289,0.008 -1.59174,0 -3.353,-0.10118 -5.2834,-0.30438 -1.9304,-0.2032 -3.92808,-0.40658 -5.99395,-0.60978 z m 15.012,0.81959 c -0.24654,0.0121 -0.49051,0.0187 -0.73587,0.0284 0.0542,0.25344 -0.0361,0.59628 -0.27544,1.03146 -0.1016,0.23707 -0.20329,0.45723 -0.30489,0.66043 -0.0677,0.16933 -0.16943,0.37271 -0.30489,0.60978 -0.1016,0.2032 -0.23684,0.45691 -0.40617,0.76171 -0.14725,0.26505 -0.33174,0.60454 -0.5302,0.97203 0.33029,0.007 0.66684,0.019 1.01544,0.0439 l 0.0506,-0.0506 c 0.6096,-1.55786 1.01585,-2.65866 1.21905,-3.30213 0.12639,-0.34307 0.21333,-0.58521 0.27233,-0.75499 z m -24.544753,0.5178 c -0.97717,2.10227 -3.51747,3.66463 -5.8198,3.14192 -0.77808,-0.57788 0.39989,-1.52599 0.9524,-1.85776 1.44803,-0.83522 3.30919,-1.23974 4.8674,-1.28416 z m 14.721583,0.70331 c 0.0933,0.005 0.20919,0.0313 0.35502,0.0842 1.36051,0.11638 2.72271,0.22154 4.08657,0.28991 -0.29295,0.72134 -1.47532,0.18238 -2.11667,0.60358 -1.17307,0.34198 -1.6454,1.74971 -1.39733,2.76572 -0.64346,-0.43266 -1.5516,-0.13022 -1.86603,-0.97565 -0.78109,-0.44356 0.3491,-1.2874 0.38395,-1.95233 0.16839,-0.44438 0.15001,-0.83588 0.55449,-0.81546 z m 6.6275,4.35994 c -0.6096,1.28693 -1.21923,2.65873 -1.82883,4.115 -0.6096,1.4224 -1.08346,2.6925 -1.42213,3.8101 -0.13547,0.44027 -0.16955,0.71127 -0.1018,0.81287 0.0339,0.0677 0.0679,0.10129 0.1018,0.10129 0.0677,0.0677 0.15213,0.051 0.25373,-0.0506 0.13547,-0.10161 0.23716,-0.2033 0.30489,-0.3049 0.2032,-0.27093 0.42335,-0.60955 0.66042,-1.01595 0.24965,-0.40567 0.48088,-0.79356 0.70177,-1.17048 0.0313,-0.0877 0.0537,-0.15959 0.0879,-0.25218 0.2032,-0.67733 0.45743,-1.38814 0.76223,-2.1332 l 0.91415,-2.23552 c 0.23683,-0.57889 0.43556,-1.06276 0.63149,-1.53944 -0.35656,-0.0455 -0.7286,-0.0914 -1.06557,-0.13694 z m 2.90732,0.36174 c -0.55343,1.18251 -1.10694,2.43117 -1.66037,3.75326 -0.6096,1.4224 -1.08346,2.6925 -1.42213,3.8101 -0.13547,0.44027 -0.16953,0.71127 -0.1018,0.81287 0.0339,0.0677 0.0679,0.10129 0.1018,0.10129 0.0677,0.0677 0.15213,0.051 0.25373,-0.0506 0.13547,-0.10161 0.23716,-0.2033 0.30489,-0.3049 0.2032,-0.27093 0.42336,-0.60955 0.66042,-1.01595 0.27094,-0.44028 0.52465,-0.86381 0.76172,-1.27021 0.23706,-0.44026 0.45722,-0.82974 0.66042,-1.16841 0.18076,-0.28404 0.32273,-0.48986 0.44442,-0.65577 0.29248,-0.78366 0.6097,-1.61292 0.95498,-2.49339 0.13547,-0.33867 0.33885,-0.54205 0.60978,-0.60978 0.27094,-0.1016 0.52516,-0.1016 0.76223,0 0.27093,0.0677 0.47379,0.22028 0.60926,0.45734 0.13546,0.2032 0.13546,0.42335 0,0.66042 -0.37254,0.64346 -0.72793,1.33749 -1.0666,2.08256 -0.33866,0.7112 -0.62644,1.38846 -0.86351,2.03192 -0.23707,0.6096 -0.40638,1.11754 -0.50798,1.52394 -0.1016,0.37254 -0.068,0.54185 0.10129,0.50798 0.16932,-0.13546 0.38949,-0.38917 0.66042,-0.76171 0.3048,-0.37253 0.60987,-0.7793 0.91467,-1.21957 l 0.91416,-1.42213 c 0.0124,-0.0173 0.0193,-0.0273 0.0315,-0.0444 0.25535,-0.40133 0.5143,-0.7946 0.78031,-1.17461 0.44026,-0.67734 0.76212,-1.16849 0.96532,-1.47329 0,-0.0339 -0.0168,-0.0679 -0.0506,-0.1018 -0.2032,-0.6096 -0.28811,-1.03263 -0.25425,-1.2697 0.0165,-0.11564 0.0418,-0.22293 0.0744,-0.32246 -1.13475,-0.0629 -2.26358,-0.13742 -3.38015,-0.23667 -0.43896,-0.0488 -0.84185,-0.0975 -1.25833,-0.14625 z m 5.63531,0.4377 c -7.9e-4,0.005 -0.004,0.008 -0.004,0.0134 l 0,0.15244 c 0,0.13546 0.0508,0.30478 0.15245,0.50798 0.12441,-0.34835 0.16569,-0.5675 0.12557,-0.65991 -0.009,-2e-4 -0.0185,-2.6e-4 -0.0279,-5.2e-4 -0.0824,-0.004 -0.16364,-0.01 -0.24598,-0.0134 z m -22.582603,0.90227 c -0.34686,2e-5 -0.7231,0.009 -1.12913,0.0258 -0.67733,1.4224 -1.23611,2.62437 -1.67638,3.60649 -0.44026,0.98214 -0.81296,1.86277 -1.11776,2.6417 -0.3048,0.74507 -0.5758,1.45639 -0.81287,2.13372 -0.23707,0.64347 -0.474,1.37157 -0.71107,2.18437 0.4064,0.16934 0.82943,2e-5 1.26969,-0.50798 0.47414,-0.508 0.89768,-1.10086 1.27021,-1.77819 0.27772,-0.51271 0.5553,-1.07813 0.83302,-1.68517 0.0257,-0.22423 0.0634,-0.45559 0.12506,-0.70228 0.16933,-0.67734 0.40626,-1.45628 0.71106,-2.33681 0.27094,-0.88053 0.57601,-1.77794 0.91468,-2.69234 0.10778,-0.30179 0.21571,-0.59442 0.32349,-0.88935 z m 6.239933,1.13998 c -0.1778,0.019 -0.39402,0.10495 -0.64802,0.25735 -0.47413,0.27093 -0.89716,0.62633 -1.26969,1.0666 -0.33867,0.4064 -0.66052,0.98247 -0.96532,1.72754 -0.1016,0.3048 -0.20329,0.62613 -0.30489,0.9648 -0.1016,0.33867 -0.16923,0.67729 -0.20309,1.01596 -0.0339,0.33867 -0.0339,0.64374 0,0.91467 0.0339,0.23707 0.13556,0.42317 0.30489,0.55862 0.23707,0.2032 0.57569,0.11881 1.01596,-0.25373 0.44026,-0.37253 0.88059,-0.86369 1.32085,-1.47329 0.44027,-0.64347 0.82974,-1.30394 1.16841,-1.98127 0.37253,-0.7112 0.60947,-1.30406 0.71107,-1.77819 0,-0.0677 -0.0341,-0.18619 -0.10181,-0.35554 -0.0677,-0.16932 -0.1689,-0.30457 -0.30437,-0.40617 -0.13547,-0.13547 -0.32207,-0.22038 -0.55914,-0.25425 -0.0508,-0.008 -0.10558,-0.009 -0.16485,-0.003 z m 31.02033,2.94607 5.3e-4,0 5.3e-4,0 c 0.0949,-0.006 0.17988,0.0166 0.25579,0.0672 0.1016,0.0508 0.16975,0.1525 0.20361,0.3049 0.0339,0.13547 -0.009,0.32155 -0.12712,0.55862 0.1524,0.44026 0.28764,0.84703 0.40617,1.21956 0.11854,0.37253 0.19507,0.73632 0.22893,1.09192 0.002,0.0247 -0.001,0.0519 0,0.077 0.07,-0.10858 0.1378,-0.21497 0.21497,-0.33073 0.22013,-0.37253 0.44869,-0.72844 0.68575,-1.06711 0.22014,-0.33866 0.38106,-0.58399 0.48266,-0.73639 0,-0.0169 -0.007,-0.0337 -0.0248,-0.0506 -0.1016,-0.3048 -0.14405,-0.51657 -0.12713,-0.63511 0.0169,-0.11853 0.051,-0.22022 0.10181,-0.30489 0.0677,-0.1016 0.16052,-0.16083 0.27905,-0.17777 0.13547,-0.0339 0.25393,-0.0171 0.35553,0.0506 0.1016,0.0508 0.16974,0.1525 0.20361,0.3049 0.0339,0.13547 -0.009,0.32155 -0.12712,0.55862 0.1524,0.44026 0.28764,0.84703 0.40617,1.21956 0.11853,0.37253 0.19506,0.73632 0.22893,1.09192 0.0169,0.22015 -8e-4,0.45707 -0.0517,0.71107 -0.0339,0.23707 -0.10988,0.45723 -0.22841,0.66043 -0.1016,0.2032 -0.25414,0.37251 -0.45734,0.50798 -0.18627,0.11853 -0.4232,0.17828 -0.71107,0.17828 -0.16933,0 -0.33025,-0.0262 -0.48265,-0.077 -0.1524,-0.0677 -0.27087,-0.19459 -0.35554,-0.38085 -0.16933,-0.33867 -0.16933,-0.71136 0,-1.11776 0.0169,-0.0339 0.0426,-0.059 0.0765,-0.076 0.0339,-0.0169 0.0674,-0.0253 0.10129,-0.0253 l 0.1018,0.0506 c 0.0169,0 0.0169,0.0844 0,0.25373 -0.0169,0.11853 0.0166,0.26268 0.10129,0.43201 0.0677,0.1524 0.1951,0.2457 0.38137,0.27957 0.13547,0.0169 0.22825,0.008 0.27905,-0.0258 0.0677,-0.0339 0.11858,-0.0674 0.15245,-0.10128 0.18626,-0.1524 0.29634,-0.35579 0.33021,-0.60979 0.0508,-0.254 0.0592,-0.55016 0.0253,-0.88883 -0.0339,-0.27093 -0.10149,-0.55033 -0.20309,-0.83819 -0.0941,-0.26654 -0.15779,-0.4117 -0.19379,-0.44597 -0.002,0.004 -0.003,0.008 -0.009,0.0139 -0.1016,0.16933 -0.24574,0.40678 -0.43201,0.71158 -0.18627,0.28787 -0.37235,0.58404 -0.55862,0.88884 -0.2032,0.28786 -0.38929,0.55887 -0.55863,0.81287 -0.0737,0.10321 -0.0924,0.12784 -0.14366,0.19895 -0.0343,0.0886 -0.0741,0.17491 -0.12247,0.25787 -0.1016,0.2032 -0.25414,0.37251 -0.45734,0.50798 -0.18627,0.11853 -0.4232,0.17828 -0.71106,0.17828 -0.16934,0 -0.33026,-0.0257 -0.48266,-0.0765 -0.1524,-0.0677 -0.27088,-0.19459 -0.35553,-0.38085 -0.16935,-0.33867 -0.16935,-0.71136 0,-1.11776 0.0169,-0.0339 0.0426,-0.059 0.0765,-0.076 0.0339,-0.0169 0.0674,-0.0253 0.10128,-0.0253 l 0.1018,0.0506 c 0.0169,0 0.0169,0.0844 0,0.25373 -0.0169,0.11853 0.0166,0.26268 0.10129,0.43201 0.0677,0.1524 0.19511,0.2457 0.38137,0.27957 0.13547,0.0169 0.22825,0.008 0.27905,-0.0259 0.0677,-0.0339 0.11859,-0.0674 0.15245,-0.10128 0.18628,-0.1524 0.29635,-0.35578 0.33021,-0.60978 0.0508,-0.254 0.0592,-0.55017 0.0253,-0.88884 -0.0339,-0.27093 -0.10149,-0.55033 -0.20309,-0.83819 -0.0941,-0.26654 -0.15778,-0.4117 -0.19378,-0.44597 -0.002,0.004 -0.003,0.008 -0.009,0.0139 -0.0844,0.1407 -0.21627,0.35694 -0.35915,0.59118 0.007,0.0126 0.0108,0.0272 0.0108,0.0439 0,0.0847 -0.0335,0.16959 -0.10129,0.25425 -0.23706,0.32174 -0.46562,0.64306 -0.68575,0.96479 -0.2032,0.32175 -0.40658,0.61004 -0.60978,0.86404 -0.18628,0.254 -0.37235,0.46525 -0.55862,0.63458 -0.18627,0.1524 -0.38126,0.22893 -0.58446,0.22893 -0.0847,0 -0.17797,-0.0172 -0.27957,-0.0512 -0.1016,-0.0169 -0.20278,-0.0678 -0.30438,-0.15245 -0.1016,-0.1016 -0.1865,-0.22845 -0.25424,-0.38085 -0.0677,-0.1524 -0.10129,-0.35527 -0.10129,-0.60927 0,-0.42333 0.076,-0.8128 0.22841,-1.1684 0.0925,-0.22602 0.19531,-0.43456 0.30644,-0.62942 0.21531,-0.29757 0.43657,-0.59124 0.65681,-0.88522 0.06,-0.0638 0.11988,-0.13263 0.17983,-0.18758 0.22013,-0.2032 0.38106,-0.33845 0.48266,-0.40618 0.254,-0.16934 0.49932,-0.27103 0.73639,-0.30489 0.23706,-0.0339 0.42315,-0.008 0.55862,0.0765 0.1524,0.0847 0.23731,0.2283 0.25425,0.4315 0.0169,0.18626 -0.068,0.41481 -0.25425,0.68575 -0.0847,0.11853 -0.17745,0.16937 -0.27905,0.15244 -0.0847,-0.0339 -0.11032,-0.0931 -0.0765,-0.17777 0.0508,-0.16933 0.0765,-0.29619 0.0765,-0.38085 0,-0.1016 -0.0849,-0.12727 -0.25425,-0.0765 -0.0847,0.0339 -0.17745,0.0931 -0.27905,0.17776 -0.1016,0.0847 -0.24575,0.22043 -0.43202,0.4067 -0.28787,0.28786 -0.55887,0.65165 -0.81287,1.09192 -0.23707,0.44027 -0.35553,0.84704 -0.35553,1.21956 0,0.37255 0.11846,0.55863 0.35553,0.55863 0.0847,0 0.21152,-0.1017 0.38086,-0.30489 0.16157,-0.17627 0.33107,-0.37513 0.5054,-0.58963 0.15318,-0.25455 0.32591,-0.52843 0.52864,-0.83251 0.22013,-0.37253 0.44868,-0.72845 0.68575,-1.06712 0.22013,-0.33867 0.38106,-0.58399 0.48266,-0.73639 0,-0.0169 -0.008,-0.0337 -0.0253,-0.0506 -0.1016,-0.3048 -0.14407,-0.51657 -0.12713,-0.6351 0.0169,-0.11854 0.051,-0.22023 0.10181,-0.30489 0.0677,-0.1016 0.16052,-0.16084 0.27905,-0.17777 0.0336,-0.008 0.0662,-0.0139 0.0977,-0.016 z m 0.0796,0.34003 c -0.0169,0.004 -0.0253,0.0146 -0.0253,0.0315 l 0,0.0765 c 0,0.0677 0.0257,0.15213 0.0765,0.25373 0.0847,-0.23706 0.093,-0.35553 0.0253,-0.35553 -0.0339,-0.008 -0.0596,-0.0101 -0.0765,-0.006 z m 2.67891,0 c -0.0169,0.004 -0.0253,0.0146 -0.0253,0.0315 l 0,0.0765 c 0,0.0677 0.0257,0.15213 0.0765,0.25373 0.0847,-0.23706 0.0931,-0.35553 0.0253,-0.35553 -0.0339,-0.008 -0.0596,-0.0101 -0.0765,-0.006 z"
       id="path3735-2-1-8" />
  </g>
</svg>
